<svg width="1200" height="720" viewBox="0 0 1200 720" fill="none" xmlns="http://www.w3.org/2000/svg">
  <rect width="1200" height="720" fill="#050505"/>
  <path d="M0 0H1200V720H0V0Z" fill="url(#bg)"/>
  <path d="M122 520C254 383 404 315 572 316C720 317 860 369 1079 185" stroke="#FCD34D" stroke-width="2" stroke-opacity=".18"/>
  <rect x="160" y="190" width="380" height="180" rx="18" fill="#101010" stroke="#6F6F6F" stroke-width="2"/>
  <rect x="193" y="224" width="314" height="112" rx="12" fill="url(#silver)" stroke="#E8E8E8" stroke-opacity=".5"/>
  <circle cx="232" cy="258" r="9" fill="#0B0B0B"/>
  <circle cx="468" cy="258" r="9" fill="#0B0B0B"/>
  <path d="M245 296H455" stroke="#141414" stroke-width="12" stroke-linecap="round"/>
  <path d="M270 322H430" stroke="#141414" stroke-width="8" stroke-linecap="round"/>
  <rect x="628" y="238" width="360" height="230" rx="24" fill="#0F0F0F" stroke="#9D7A30" stroke-width="2"/>
  <path d="M680 292C733 248 849 249 935 292" stroke="#F6D177" stroke-width="12" stroke-linecap="round"/>
  <path d="M702 350H915" stroke="#F6D177" stroke-width="18" stroke-linecap="round"/>
  <path d="M736 394H880" stroke="#B8B8B8" stroke-width="10" stroke-linecap="round"/>
  <rect x="730" y="92" width="220" height="42" rx="21" fill="#1C1C1C" stroke="#FCD34D" stroke-opacity=".45"/>
  <rect x="240" y="462" width="700" height="18" rx="9" fill="url(#steelLine)"/>
  <rect x="290" y="502" width="600" height="10" rx="5" fill="#2A2A2A"/>
  <defs>
    <linearGradient id="bg" x1="0" y1="0" x2="1200" y2="720" gradientUnits="userSpaceOnUse">
      <stop stop-color="#111111"/>
      <stop offset=".44" stop-color="#050505"/>
      <stop offset="1" stop-color="#1A1306"/>
    </linearGradient>
    <linearGradient id="silver" x1="193" y1="224" x2="507" y2="336" gradientUnits="userSpaceOnUse">
      <stop stop-color="#F4F4F4"/>
      <stop offset=".38" stop-color="#888"/>
      <stop offset=".72" stop-color="#D9D9D9"/>
      <stop offset="1" stop-color="#5A5A5A"/>
    </linearGradient>
    <linearGradient id="steelLine" x1="240" y1="462" x2="940" y2="480" gradientUnits="userSpaceOnUse">
      <stop stop-color="#4B5563"/>
      <stop offset=".35" stop-color="#E5E7EB"/>
      <stop offset=".66" stop-color="#A16207"/>
      <stop offset="1" stop-color="#FCD34D"/>
    </linearGradient>
  </defs>
</svg>
